# xmcd
# 
# Track frame offsets:
#     150
#     17280
#     33485
#     53990
#     74502
#     92397
#     106777
#     133658
#     148682
#     165465
#     183018
# 
# Disc length: 3485
# 
# Revision: 0
# Processed by: cddbd v1.5.2PL0 Copyright (c) Steve Scherf et al.
# Submitted via: BonkEnc v1.0.8
# 
DISCID=860d9b0b
DTITLE=SPOONFUL - A Change Of Heart
DYEAR=2006
DGENRE=Blues
TTITLE0=She's A Bitch
TTITLE1=Alone
TTITLE2=U'll Still Be My Friend
TTITLE3=You Can Call Me
TTITLE4=It Is Hard
TTITLE5=Cry Baby
TTITLE6=Just For You
TTITLE7=The Weather's Still Time
TTITLE8=I'm Feel So Sad
TTITLE9=Til The Morning Light
TTITLE10=Now Was Your Day
EXTD=
EXTT0=
EXTT1=
EXTT2=
EXTT3=
EXTT4=
EXTT5=
EXTT6=
EXTT7=
EXTT8=
EXTT9=
EXTT10=
PLAYORDER=
